{
  "accessors": [
    {
      "bufferView": 2,
      "componentType": 5126,
      "count": 44873,
      "max": [
        0.291690468788147,
        3.966597557067871,
        0.09416660666465759
      ],
      "min": [
        -1.3276805877685547,
        -1.0094457864761353,
        -0.13239099085330963
      ],
      "type": "VEC3"
    },
    {
      "bufferView": 2,
      "byteOffset": 538476,
      "componentType": 5126,
      "count": 44873,
      "max": [
        1.0,
        1.0,
        1.0
      ],
      "min": [
        -1.0,
        -1.0,
        -1.0
      ],
      "type": "VEC3"
    },
    {
      "bufferView": 3,
      "componentType": 5126,
      "count": 44873,
      "max": [
        1.0,
        1.0,
        1.0,
        1.0
      ],
      "min": [
        -1.0,
        -1.0,
        -1.0,
        -1.0
      ],
      "type": "VEC4"
    },
    {
      "bufferView": 1,
      "componentType": 5126,
      "count": 44873,
      "max": [
        0.9947953224182129,
        0.9955848455429077
      ],
      "min": [
        0.00441509485244751,
        0.00441509485244751
      ],
      "type": "VEC2"
    },
    {
      "bufferView": 1,
      "byteOffset": 358984,
      "componentType": 5126,
      "count": 44873,
      "max": [
        0.9947953224182129,
        0.9955848455429077
      ],
      "min": [
        0.00441509485244751,
        0.00441509485244751
      ],
      "type": "VEC2"
    },
    {
      "bufferView": 1,
      "byteOffset": 717968,
      "componentType": 5126,
      "count": 44873,
      "max": [
        0.9947953224182129,
        0.9955848455429077
      ],
      "min": [
        0.00441509485244751,
        0.00441509485244751
      ],
      "type": "VEC2"
    },
    {
      "bufferView": 1,
      "byteOffset": 1076952,
      "componentType": 5126,
      "count": 44873,
      "max": [
        0.9947953224182129,
        0.9955848455429077
      ],
      "min": [
        0.00441509485244751,
        0.00441509485244751
      ],
      "type": "VEC2"
    },
    {
      "bufferView": 0,
      "componentType": 5125,
      "count": 165777,
      "type": "SCALAR"
    }
  ],
  "asset": {
    "extras": {
      "author": "barking_dogo (https://sketchfab.com/barking_dogo)",
      "license": "CC-BY-4.0 (http://creativecommons.org/licenses/by/4.0/)",
      "source": "https://sketchfab.com/3d-models/electric-guitar-squier-by-fender-9851715512a949ed91f904078b74a7f8",
      "title": "Electric Guitar Squier by Fender"
    },
    "generator": "Sketchfab-14.40.0",
    "version": "2.0"
  },
  "bufferViews": [
    {
      "buffer": 0,
      "byteLength": 663108,
      "name": "floatBufferViews",
      "target": 34963
    },
    {
      "buffer": 0,
      "byteLength": 1435936,
      "byteOffset": 663108,
      "byteStride": 8,
      "name": "floatBufferViews",
      "target": 34962
    },
    {
      "buffer": 0,
      "byteLength": 1076952,
      "byteOffset": 2099044,
      "byteStride": 12,
      "name": "floatBufferViews",
      "target": 34962
    },
    {
      "buffer": 0,
      "byteLength": 717968,
      "byteOffset": 3175996,
      "byteStride": 16,
      "name": "floatBufferViews",
      "target": 34962
    }
  ],
  "buffers": [
    {
      "byteLength": 3893964,
      "uri": "scene.bin"
    }
  ],
  "images": [
    {
      "uri": "textures/Guitar_baseColor.png"
    },
    {
      "uri": "textures/Guitar_metallicRoughness.png"
    },
    {
      "uri": "textures/Guitar_normal.png"
    }
  ],
  "materials": [
    {
      "doubleSided": true,
      "name": "Guitar",
      "normalTexture": {
        "index": 2,
        "texCoord": 2
      },
      "pbrMetallicRoughness": {
        "baseColorTexture": {
          "index": 0
        },
        "metallicRoughnessTexture": {
          "index": 1,
          "texCoord": 1
        }
      }
    }
  ],
  "meshes": [
    {
      "name": "Object_0",
      "primitives": [
        {
          "attributes": {
            "NORMAL": 1,
            "POSITION": 0,
            "TANGENT": 2,
            "TEXCOORD_0": 3,
            "TEXCOORD_1": 4,
            "TEXCOORD_2": 5,
            "TEXCOORD_3": 6
          },
          "indices": 7,
          "material": 0,
          "mode": 4
        }
      ]
    }
  ],
  "nodes": [
    {
      "children": [
        1
      ],
      "matrix": [
        1.0992650985717773,
        0.0,
        0.0,
        0.0,
        0.0,
        2.440858845202459e-16,
        -1.0992650985717773,
        0.0,
        0.0,
        1.0992650985717773,
        2.440858845202459e-16,
        0.0,
        0.0,
        0.0,
        0.0,
        1.0
      ],
      "name": "Sketchfab_model"
    },
    {
      "children": [
        2
      ],
      "name": "root"
    },
    {
      "children": [
        3
      ],
      "matrix": [
        1.0,
        0.0,
        0.0,
        0.0,
        0.0,
        2.220446049250313e-16,
        1.0,
        0.0,
        0.0,
        -1.0,
        2.220446049250313e-16,
        0.0,
        0.0,
        0.0,
        0.0,
        1.0
      ],
      "name": "GLTF_SceneRootNode"
    },
    {
      "children": [
        4
      ],
      "matrix": [
        8.429369480200677e-08,
        -0.9999999999999966,
        -0.0,
        0.0,
        0.9999999999999966,
        8.429369480200677e-08,
        0.0,
        0.0,
        0.0,
        -0.0,
        1.0,
        0.0,
        -0.8248589038848877,
        -0.5106839537620544,
        -0.039545558393001556,
        1.0
      ],
      "name": "BezierCurve.001_low.003_0"
    },
    {
      "mesh": 0,
      "name": "Object_4"
    }
  ],
  "samplers": [
    {
      "magFilter": 9729,
      "minFilter": 9987,
      "wrapS": 10497,
      "wrapT": 10497
    }
  ],
  "scene": 0,
  "scenes": [
    {
      "name": "Sketchfab_Scene",
      "nodes": [
        0
      ]
    }
  ],
  "textures": [
    {
      "sampler": 0,
      "source": 0
    },
    {
      "sampler": 0,
      "source": 1
    },
    {
      "sampler": 0,
      "source": 2
    }
  ]
}
